<?xml version="1.0" encoding="UTF-8"?>
<svg version="1.1" xmlns="http://www.w3.org/2000/svg" width="512" height="512">
<path d="M0 0 C1.54065125 -0.00744736 1.54065125 -0.00744736 3.11242676 -0.01504517 C6.49894899 -0.02960644 9.8854243 -0.03646082 13.27197266 -0.04199219 C14.43585133 -0.04481956 15.59973 -0.04764694 16.79887772 -0.05056 C22.96520463 -0.06553288 29.13150828 -0.07477274 35.29785156 -0.07910156 C41.62637365 -0.08456521 47.95467831 -0.10855424 54.28313255 -0.13707352 C59.18377269 -0.15582837 64.08436197 -0.16091242 68.98503494 -0.16243744 C71.31550909 -0.16543854 73.6459829 -0.17337955 75.97642136 -0.18662262 C92.3484412 -0.27297432 108.06596668 0.37720721 123.68603516 5.84863281 C124.4248291 6.10281982 125.16362305 6.35700684 125.92480469 6.61889648 C138.4353054 11.10073038 149.30741076 17.71780348 159.56103516 26.16113281 C160.48529297 26.92039062 161.40955078 27.67964844 162.36181641 28.46191406 C183.86150119 47.04226399 198.26639243 74.74732572 200.56103516 103.16113281 C200.74642825 107.50689957 200.8303266 111.84794176 200.85620117 116.19750977 C200.86777339 117.55015479 200.8883075 118.90275233 200.91772461 120.25512695 C201.22240026 134.3195678 201.22240026 134.3195678 196.56103516 140.16113281 C191.69302301 143.7541894 186.40559232 144.01643386 180.56103516 143.16113281 C176.03200165 140.93778909 173.61192845 138.74068431 171.56103516 134.16113281 C171.09209504 130.35410466 171.05420983 126.55605357 170.99853516 122.72363281 C170.93281907 120.54510389 170.86253456 118.3667078 170.78759766 116.18847656 C170.75182617 115.14288574 170.71605469 114.09729492 170.67919922 113.02001953 C169.71704859 89.74154038 160.30583633 67.75437916 143.07226562 51.78125 C121.66294324 33.13681958 96.44672703 29.83157172 69.12353516 29.89550781 C67.06957961 29.89415689 65.01562438 29.89221282 62.96166992 29.88970947 C58.67867965 29.8867783 54.39577339 29.89099077 50.11279297 29.90039062 C44.65970672 29.91178386 39.20681745 29.90521356 33.7537384 29.8932457 C29.51890617 29.8859726 25.2841196 29.88833989 21.04928589 29.89350128 C19.04011002 29.89482275 17.03092983 29.89324362 15.02175903 29.88854218 C-13.78203536 29.83591086 -37.81526473 35.39536174 -59.43896484 55.72363281 C-75.63142724 72.34353599 -82.74212674 93.64028341 -83.00146484 116.53613281 C-83.25835332 134.51832646 -83.25835332 134.51832646 -86.87646484 138.90332031 C-92.74145158 143.15543569 -96.26204246 143.7352866 -103.43896484 143.16113281 C-107.85238453 141.8534529 -109.08656995 140.71094602 -111.57958984 136.82128906 C-114.24561948 131.23634072 -113.95714191 125.67443495 -113.81396484 119.59863281 C-113.79672363 118.4376709 -113.77948242 117.27670898 -113.76171875 116.08056641 C-113.06353539 82.55370777 -101.19001319 54.11744673 -77.328125 30.64746094 C-72.36229097 25.88907383 -67.36719344 21.68330567 -61.43896484 18.16113281 C-60.39740234 17.51015625 -59.35583984 16.85917969 -58.28271484 16.18847656 C-45.55618936 8.41601057 -32.1288354 3.66652178 -17.43896484 1.16113281 C-16.43360687 0.98825745 -15.4282489 0.81538208 -14.39242554 0.63726807 C-9.57270169 0.05680436 -4.84967982 0.0056589 0 0 Z " fill="#000000" transform="translate(283.43896484375,283.8388671875)"/>
<path d="M0 0 C2.46321518 2.18745432 4.84245343 4.43729026 7.20703125 6.73046875 C7.81933594 7.26929687 8.43164062 7.808125 9.0625 8.36328125 C24.09892222 22.05778021 31.30182647 43.28775079 32.5234375 63.109375 C33.34647066 84.47792725 26.87752133 105.20767717 13.20703125 121.73046875 C12.541875 122.56964844 11.87671875 123.40882813 11.19140625 124.2734375 C-1.43758236 139.35806279 -21.19542795 150.38983287 -40.79296875 152.73046875 C-66.66078217 154.66368064 -88.11247137 149.70904187 -108.79296875 133.73046875 C-110.30890625 132.61671875 -110.30890625 132.61671875 -111.85546875 131.48046875 C-127.31078192 118.12672791 -136.55927597 97.43425395 -139.54296875 77.54296875 C-141.10975443 53.64948707 -135.59581484 30.63335366 -119.8671875 12.05859375 C-119.18269531 11.2903125 -118.49820312 10.52203125 -117.79296875 9.73046875 C-117.13941406 8.9828125 -116.48585938 8.23515625 -115.8125 7.46484375 C-86.01457829 -24.51341369 -33.75733673 -27.43078691 0 0 Z M-97.5625 31.73046875 C-107.92451607 44.74201298 -111.15637748 59.44666156 -109.79296875 75.73046875 C-107.82231058 88.81892342 -101.08458395 99.5701838 -91.79296875 108.73046875 C-90.94605469 109.59285156 -90.94605469 109.59285156 -90.08203125 110.47265625 C-79.38595167 120.54262386 -64.57693422 124.40108184 -50.23046875 124.0078125 C-35.83073168 122.84601553 -21.56649849 116.4989087 -11.79296875 105.73046875 C0.03331375 91.33742717 3.64966196 75.9644354 2.20703125 57.73046875 C-0.3871576 42.72456196 -9.0372741 29.93637957 -21.19921875 20.953125 C-29.30445528 15.78208935 -39.11127328 11.2890281 -48.79296875 10.73046875 C-49.42847656 10.68019531 -50.06398438 10.62992188 -50.71875 10.578125 C-69.05407106 9.74013044 -85.63065033 18.24458127 -97.5625 31.73046875 Z " fill="#000000" transform="translate(380.79296875,103.26953125)"/>
<path d="M0 0 C4.02721857 2.01360928 6.67128944 4.16292099 9 8 C9.36076355 10.8727417 9.36076355 10.8727417 9.34057617 14.23730469 C9.34034958 15.49830994 9.34012299 16.75931519 9.33988953 18.05853271 C9.32457082 19.42965044 9.30892285 20.80076452 9.29296875 22.171875 C9.28737086 23.57862902 9.28310167 24.98538891 9.28010559 26.39215088 C9.26867185 30.08795424 9.2392178 33.78340179 9.20599365 37.47906494 C9.17526077 41.25292142 9.16159341 45.0268356 9.14648438 48.80078125 C9.11434629 56.20068273 9.06316824 63.60029144 9 71 C9.76341705 70.99111755 10.52683411 70.98223511 11.31338501 70.9730835 C18.52239084 70.89279802 25.73117863 70.83196529 32.94051552 70.79275131 C36.6465735 70.77191285 40.3522608 70.74366497 44.05810547 70.69824219 C47.63725786 70.65464888 51.21605464 70.63083477 54.79545212 70.62049103 C56.15818247 70.61312365 57.52089427 70.59873662 58.88347244 70.57707977 C67.70066338 70.44256505 72.41861279 70.57659166 78.8125 76.75 C81.25375413 81.37553414 81.22353899 85.68111994 80.375 90.6875 C78.81499464 94.44569473 77.11759825 96.41467462 74 99 C70.74628455 100.08457182 68.3910068 100.12046857 64.96801758 100.11352539 C63.72695755 100.11344986 62.48589752 100.11337433 61.20722961 100.11329651 C59.85299642 100.10818991 58.49876363 100.10297391 57.14453125 100.09765625 C55.75876415 100.09579083 54.37299639 100.09436751 52.98722839 100.09336853 C49.3425209 100.0895531 45.69785335 100.07973113 42.05316162 100.06866455 C38.33297262 100.0584295 34.61277715 100.05386642 30.89257812 100.04882812 C23.59503389 100.03810798 16.29752254 100.02104325 9 100 C9.01332367 100.77372452 9.02664734 101.54744904 9.04037476 102.34461975 C9.1608773 109.65628121 9.25208716 116.96745749 9.31087303 124.27985477 C9.34211267 128.03880935 9.38444592 131.79693968 9.45263672 135.55541992 C9.51809944 139.18649258 9.55376141 142.8167754 9.56926346 146.44839287 C9.58030226 147.82990382 9.60185957 149.21137422 9.63438034 150.59254646 C9.90927396 162.75742656 9.90927396 162.75742656 6.15087891 167.34155273 C2.71087559 170.72018368 -0.60484268 171.18878563 -5.3125 171.3125 C-10.35538115 171.25254501 -13.23145787 170.58011503 -17 167 C-19.52564577 162.74277984 -20.37125468 159.64825264 -20.34057617 154.71923828 C-20.34034958 153.4984256 -20.34012299 152.27761292 -20.33988953 151.01980591 C-20.32440567 149.71647308 -20.30892181 148.41314026 -20.29296875 147.0703125 C-20.28736703 145.71125763 -20.28309966 144.35219666 -20.28010559 142.99313354 C-20.26870194 139.43215945 -20.23927429 135.87155785 -20.20599365 132.31072998 C-20.17519543 128.67074623 -20.16157952 125.03070175 -20.14648438 121.390625 C-20.11439956 114.26026514 -20.06325826 107.13015701 -20 100 C-20.76341705 100.00888245 -21.52683411 100.01776489 -22.31338501 100.0269165 C-29.52239084 100.10720198 -36.73117863 100.16803471 -43.94051552 100.20724869 C-47.6465735 100.22808715 -51.3522608 100.25633503 -55.05810547 100.30175781 C-58.63725786 100.34535112 -62.21605464 100.36916523 -65.79545212 100.37950897 C-67.15818247 100.38687635 -68.52089427 100.40126338 -69.88347244 100.42292023 C-83.18137827 100.62579256 -83.18137827 100.62579256 -88 96 C-91.33512934 91.21964795 -91.7492757 86.64994376 -91 81 C-89.44392346 76.79859335 -87.86950532 74.29751878 -84 72 C-80.77141906 70.92380635 -78.45460721 70.87947504 -75.05981445 70.88647461 C-73.83877518 70.88655014 -72.6177359 70.88662567 -71.35969543 70.88670349 C-69.38147041 70.89444542 -69.38147041 70.89444542 -67.36328125 70.90234375 C-65.99993441 70.9042092 -64.63658689 70.9056325 -63.27323914 70.90663147 C-59.68771509 70.91044668 -56.10223165 70.92026845 -52.51672363 70.93133545 C-48.8568578 70.94157099 -45.1969854 70.94613368 -41.53710938 70.95117188 C-34.35805442 70.96189162 -27.1790329 70.97895607 -20 71 C-20.00888245 70.25133163 -20.01776489 69.50266327 -20.0269165 68.73130798 C-20.10726457 61.65507775 -20.16806653 54.57900711 -20.20724869 47.50244808 C-20.22807046 43.86479575 -20.25628732 40.22752224 -20.30175781 36.59008789 C-20.34541134 33.07576875 -20.36917776 29.56181259 -20.37950897 26.04724312 C-20.39043132 24.06253705 -20.42162628 22.07797579 -20.45318604 20.0934906 C-20.45489763 13.17778158 -20.26837757 8.56622184 -16 3 C-11.59330591 -1.13962172 -5.69809208 -0.76141906 0 0 Z " fill="#000000" transform="translate(119,142)"/>
</svg>
