<?xml version="1.0" encoding="UTF-8"?>
<svg version="1.1" xmlns="http://www.w3.org/2000/svg" width="512" height="512">
<path d="M0 0 C1.25441895 -0.01401855 2.50883789 -0.02803711 3.80126953 -0.04248047 C12.51443389 0.00195701 20.50103378 1.23208294 28.9375 3.375 C30.06514771 3.62576294 30.06514771 3.62576294 31.21557617 3.8815918 C34.0531157 4.73566681 35.65544142 5.9022161 37.16796875 8.4375 C38.29939927 11.05163549 39.15517956 13.63687848 39.9375 16.375 C40.15148437 17.09300781 40.36546875 17.81101562 40.5859375 18.55078125 C48.03212295 48.92905956 39.32259717 80.93919896 23.50952148 107.02783203 C19.67161808 113.08182833 15.13324501 118.47251584 10.34495544 123.79600525 C9.40085709 124.8551694 8.46977992 125.9260747 7.551651 127.00782776 C2.06734746 133.4390155 -3.91646577 139.35582829 -9.90234375 145.3125 C-11.03599143 146.44427864 -12.16941559 147.5762812 -13.30262756 148.70849609 C-16.26113851 151.66322011 -19.22264181 154.61492653 -22.18481445 157.565979 C-25.21684725 160.58771471 -28.24599067 163.61234394 -31.27539062 166.63671875 C-37.20162967 172.55228805 -43.13103842 178.46466729 -49.0625 184.375 C-48.75836182 185.13417725 -48.45422363 185.89335449 -48.14086914 186.67553711 C-46.910142 189.75639516 -45.70054553 192.84475137 -44.5 195.9375 C-44.06558594 197.05253906 -43.63117188 198.16757813 -43.18359375 199.31640625 C-39.37978804 209.69403646 -39.73736476 222.20746064 -44.0625 232.375 C-48.37307056 241.60888691 -55.426687 248.35280218 -62.57568359 255.40966797 C-64.57229825 257.38469229 -66.54645167 259.38039913 -68.51953125 261.37890625 C-69.79298908 262.64972321 -71.06768591 263.91930008 -72.34375 265.1875 C-72.92829956 265.78014648 -73.51284912 266.37279297 -74.1151123 266.98339844 C-77.48716356 270.27963244 -80.23005898 272.69314101 -85.0625 273.375 C-91.26300572 271.65998533 -94.91077962 268.06376657 -99.30859375 263.51953125 C-99.96457047 262.85789474 -100.62054718 262.19625824 -101.29640198 261.51457214 C-103.37390986 259.41480863 -105.43701504 257.30152392 -107.5 255.1875 C-108.9124804 253.75494077 -110.32588282 252.32329002 -111.74023438 250.89257812 C-115.1917476 247.39714101 -118.63041879 243.88951457 -122.0625 240.375 C-122.52213135 241.03669189 -122.9817627 241.69838379 -123.45532227 242.38012695 C-128.87482786 250.15711393 -134.28993071 257.88270563 -141.0625 264.5625 C-141.64 265.13355469 -142.2175 265.70460938 -142.8125 266.29296875 C-146.29989494 267.97006667 -149.47103087 267.46992735 -153.0625 266.375 C-155.84953102 264.55400577 -158.05831299 262.28718824 -160.36474609 259.89916992 C-161.04545166 259.22269913 -161.72615723 258.54622833 -162.42749023 257.84925842 C-164.66422949 255.61782167 -166.87497922 253.36242896 -169.0859375 251.10546875 C-170.63774097 249.5456804 -172.19095476 247.98729399 -173.74551392 246.43025208 C-176.99555604 243.1679812 -180.23390472 239.89469215 -183.46337891 236.61206055 C-187.60419724 232.4033015 -191.7643009 228.21430471 -195.93213463 224.03231335 C-199.90679539 220.04252831 -203.8717424 216.04314794 -207.8359375 212.04296875 C-208.97241289 210.89857865 -208.97241289 210.89857865 -210.13184738 209.73106956 C-212.27217319 207.57230007 -214.40547612 205.40684234 -216.53662109 203.23901367 C-217.17141388 202.60041412 -217.80620667 201.96181458 -218.4602356 201.30386353 C-219.04041443 200.71081924 -219.62059326 200.11777496 -220.21835327 199.50675964 C-220.72232321 198.99554156 -221.22629314 198.48432348 -221.7455349 197.95761395 C-224.14234713 195.07733378 -225.02913603 192.94218745 -225.25 189.1875 C-222.0659264 178.9649479 -210.53887314 173.02591542 -202.0625 167.375 C-200.72470822 166.38097237 -199.39048462 165.38209216 -198.0625 164.375 C-198.9911084 163.47257568 -199.9197168 162.57015137 -200.87646484 161.64038086 C-204.32948307 158.27809446 -207.76573739 154.89909722 -211.19726562 151.51489258 C-212.68267605 150.05457355 -214.17255016 148.59878014 -215.66699219 147.14770508 C-217.81864569 145.05693391 -219.9535382 142.9502274 -222.0859375 140.83984375 C-222.75370209 140.19788559 -223.42146667 139.55592743 -224.10946655 138.89451599 C-227.97305794 135.03327613 -230.43906455 132.01947618 -231.0625 126.375 C-229.33242423 121.10293613 -225.74080597 117.55730015 -221.91796875 113.69140625 C-221.0086132 112.7635154 -221.0086132 112.7635154 -220.08088684 111.81687927 C-218.79634299 110.51282794 -217.50764885 109.21285335 -216.21508789 107.91674805 C-214.27626244 105.96395169 -212.36574233 103.98616392 -210.45507812 102.00585938 C-199.50424702 90.8633574 -188.70693559 83.2029882 -172.5625 83.0625 C-163.12233282 83.02834119 -155.17945648 84.72603114 -147.0625 89.75 C-146.0725 90.28625 -145.0825 90.8225 -144.0625 91.375 C-140.18398646 90.15052175 -137.72041939 87.26086679 -134.91772461 84.42553711 C-134.41787048 83.92276245 -133.91801636 83.41998779 -133.40301514 82.90197754 C-132.31991476 81.8112793 -131.23913074 80.718277 -130.16041374 79.62324333 C-128.4437826 77.88096797 -126.72088024 76.14511844 -124.99623108 74.41078186 C-120.70813501 70.09600393 -116.43079584 65.77061357 -112.15344238 61.44519043 C-108.54569249 57.79763948 -104.93364972 54.15443954 -101.31604195 50.51666451 C-99.63541016 48.82325656 -97.96102559 47.12384421 -96.28684998 45.42405701 C-89.86487765 38.94102473 -83.26912026 32.99339721 -76.0625 27.375 C-75.12135345 26.63550613 -75.12135345 26.63550613 -74.16119385 25.881073 C-52.36787753 9.06001045 -27.45780557 0.21134291 0 0 Z M-38.0625 24.375 C-32.69056094 30.90378733 -26.74464926 36.82079862 -20.7578125 42.77734375 C-19.66757635 43.86571139 -18.57756331 44.95430257 -17.48776245 46.04310608 C-14.63938206 48.88769535 -11.78800996 51.72926681 -8.93597412 54.57019043 C-6.01798 57.47789665 -3.10286696 60.38848824 -0.1875 63.29882812 C5.51803984 68.99369081 11.22674794 74.68536412 16.9375 80.375 C18.87467644 77.46923533 19.83892346 75.10393831 20.9375 71.8125 C21.2675 70.84183594 21.5975 69.87117188 21.9375 68.87109375 C24.48955511 59.94886983 25.25207138 51.65175562 25.1875 42.375 C25.19523437 41.26382813 25.20296875 40.15265625 25.2109375 39.0078125 C25.19498685 32.22878761 24.56856588 25.95871013 22.9375 19.375 C2.88350157 13.9057277 -19.00661908 16.32119372 -38.0625 24.375 Z M-60.5625 37.3125 C-61.5421875 38.04339844 -62.521875 38.77429687 -63.53125 39.52734375 C-72.18754578 46.33749918 -79.98358708 54.15201255 -87.74462891 61.94360352 C-88.77050622 62.96976374 -89.79660544 63.99570217 -90.82290649 65.0214386 C-93.57653486 67.77478303 -96.32709471 70.53117367 -99.07706499 73.28817105 C-101.96333044 76.18073789 -104.85247627 79.07042499 -107.74130249 81.96043396 C-113.19704237 87.41926731 -118.65023073 92.88064203 -124.10248029 98.34296125 C-130.31583339 104.56753747 -136.5320663 110.7892344 -142.74852872 117.01070511 C-155.52303291 129.79562872 -168.2939618 142.58411819 -181.0625 155.375 C-180.5675 156.365 -180.5675 156.365 -180.0625 157.375 C-178.86496094 157.08625 -177.66742188 156.7975 -176.43359375 156.5 C-166.47361675 154.19182464 -156.32440443 151.84399006 -146.0625 153.375 C-143.84463185 154.87965329 -143.20248477 155.69428973 -142.6640625 158.3125 C-142.67179687 158.993125 -142.67953125 159.67375 -142.6875 160.375 C-142.67589844 161.3959375 -142.67589844 161.3959375 -142.6640625 162.4375 C-143.19594226 165.0238957 -143.91578025 165.84162875 -146.0625 167.375 C-148.63671875 167.96484375 -148.63671875 167.96484375 -151.75 168.3125 C-170.9570721 170.97128628 -187.88623189 177.05042805 -203.0625 189.375 C-201.47469641 193.23966333 -199.00316771 195.67559155 -196.06201172 198.60253906 C-195.554534 199.11030884 -195.04705627 199.61807861 -194.52420044 200.14123535 C-192.85156131 201.81248509 -191.17195783 203.47654556 -189.4921875 205.140625 C-188.32875722 206.30032377 -187.16576874 207.46046592 -186.00320435 208.62103271 C-182.946518 211.67009352 -179.88387256 214.71309963 -176.81994629 217.75488281 C-173.69274835 220.86159913 -170.57122493 223.97400545 -167.44921875 227.0859375 C-161.3258512 233.18787417 -155.1961764 239.28342598 -149.0625 245.375 C-139.55712726 241.10516733 -134.37452467 225.60297076 -130.75390625 216.29443359 C-127.82325075 208.15855311 -126.69087813 199.60430534 -125.6875 191.0546875 C-125.00725527 188.13813822 -124.52349297 187.04984244 -122.0625 185.375 C-120.125 185.046875 -120.125 185.046875 -118.0625 185.125 C-117.381875 185.14046875 -116.70125 185.1559375 -116 185.171875 C-114.0625 185.375 -114.0625 185.375 -111.0625 186.375 C-110.48295468 198.94791367 -112.06093086 210.16772549 -115.0625 222.375 C-111.0543575 222.375 -110.40532978 221.09692516 -107.59973145 218.2999115 C-106.68594727 217.39603195 -105.77216309 216.4921524 -104.83068848 215.56088257 C-103.81991391 214.54586912 -102.80929919 213.53069646 -101.79882812 212.51538086 C-100.73311747 211.45537069 -99.66677709 210.39599331 -98.59985352 209.33720398 C-95.69550879 206.45086528 -92.8008725 203.55496913 -89.90836525 200.65677333 C-87.48661645 198.23193587 -85.06029419 195.81170102 -82.63398314 193.39142996 C-76.89690846 187.66843032 -71.16771299 181.93762591 -65.44335938 176.2019043 C-59.56523796 170.31236647 -53.67457604 164.43559878 -47.77730227 158.56524366 C-42.70056187 153.51079922 -37.63177241 148.44847516 -32.56908751 143.37995249 C-29.55220744 140.35972641 -26.53261268 137.34236128 -23.50538635 134.33250237 C-5.90977065 117.02305611 -5.90977065 117.02305611 8.9375 97.375 C7.30612306 93.24967721 4.32261914 90.47862738 1.234375 87.41308594 C0.6520813 86.8272876 0.0697876 86.24148926 -0.53015137 85.63793945 C-2.4526058 83.70669543 -4.38226811 81.78284337 -6.3125 79.859375 C-7.65035813 78.52016979 -8.98791924 77.18066779 -10.32519531 75.84088135 C-13.12631537 73.03681409 -15.93101815 70.23639336 -18.73828125 67.43847656 C-22.34337077 63.84480329 -25.93937899 60.24219749 -29.53277588 56.63683701 C-32.29144246 53.87095976 -35.05483457 51.10984361 -37.81970215 48.35016632 C-39.14810183 47.02310419 -40.47500811 45.69454547 -41.80041504 44.36449432 C-43.64861802 42.5112368 -45.50306766 40.66447076 -47.359375 38.81933594 C-47.91008667 38.26457581 -48.46079834 37.70981567 -49.02819824 37.13824463 C-54.06646627 32.15627459 -55.09978414 33.19434436 -60.5625 37.3125 Z M-198.625 115.625 C-199.64269468 116.66782494 -200.66156698 117.709502 -201.68164062 118.75 C-204.15563997 121.27858098 -206.6133566 123.82230884 -209.0625 126.375 C-207.74129172 129.30730193 -206.31611803 131.36164899 -204.0234375 133.609375 C-203.15332031 134.46982422 -203.15332031 134.46982422 -202.265625 135.34765625 C-201.66234375 135.93417969 -201.0590625 136.52070313 -200.4375 137.125 C-199.82648438 137.72699219 -199.21546875 138.32898438 -198.5859375 138.94921875 C-197.08261376 140.42905305 -195.57315144 141.90264676 -194.0625 143.375 C-188.99538701 139.13289864 -184.25026629 134.69782911 -179.59765625 130.0078125 C-178.91948349 129.32822479 -178.24131073 128.64863708 -177.54258728 127.94845581 C-175.40100859 125.80132998 -173.26295471 123.65073373 -171.125 121.5 C-169.66364411 120.03362227 -168.20205774 118.5674742 -166.74023438 117.1015625 C-163.17832065 113.52869 -159.61956135 109.95270316 -156.0625 106.375 C-156.78775221 103.03885983 -156.78775221 103.03885983 -160.3125 101.6875 C-177.10686109 96.01902624 -187.62378557 104.14421297 -198.625 115.625 Z M-65.70767212 199.77966309 C-66.36053192 200.43696411 -67.01339172 201.09426514 -67.68603516 201.77148438 C-68.7969603 202.88263611 -68.7969603 202.88263611 -69.93032837 204.01623535 C-70.72933563 204.82556519 -71.5283429 205.63489502 -72.3515625 206.46875 C-73.16998627 207.29000366 -73.98841003 208.11125732 -74.83163452 208.95739746 C-77.45496672 211.59196093 -80.07127553 214.23337994 -82.6875 216.875 C-84.46048058 218.65800655 -86.23391222 220.4405647 -88.0078125 222.22265625 C-92.36463014 226.60157335 -96.71569496 230.9861448 -101.0625 235.375 C-100.1167569 236.48728972 -99.169728 237.59848623 -98.22216797 238.70922852 C-97.69493134 239.32814468 -97.1676947 239.94706085 -96.6244812 240.58473206 C-94.57711082 242.9313298 -92.40583058 245.12778049 -90.1875 247.3125 C-89.01574219 248.47072266 -89.01574219 248.47072266 -87.8203125 249.65234375 C-87.24023438 250.22082031 -86.66015625 250.78929687 -86.0625 251.375 C-80.70197801 249.10355312 -77.01566112 244.73784874 -72.95336914 240.69140625 C-71.51304181 239.26293446 -70.05513949 237.85421949 -68.59570312 236.4453125 C-62.43964089 230.33670414 -58.86588755 226.03490148 -57.62890625 217.3203125 C-57.61904837 210.20291969 -58.90015149 204.75616753 -62.0625 198.375 C-64.16953976 198.15855711 -64.16953976 198.15855711 -65.70767212 199.77966309 Z " fill="#000000" transform="translate(238.0625,7.625)"/>
<path d="M0 0 C1.88308716 1.29553223 1.88308716 1.29553223 3.75048828 3.02539062 C4.44466858 3.66323486 5.13884888 4.3010791 5.85406494 4.95825195 C6.56222351 5.63202881 7.27038208 6.30580566 8 7 C8.67415955 7.63832764 9.34831909 8.27665527 10.04290771 8.93432617 C14.56310002 13.26833978 19.0025854 17.68594038 23.44726562 22.09716797 C25.07119056 23.70443559 26.70047544 25.30630501 28.33496094 26.90283203 C30.7121173 29.22524811 33.07242205 31.56366735 35.4296875 33.90625 C36.15985077 34.6137439 36.89001404 35.32123779 37.64230347 36.0501709 C41.62498159 40.04967113 44.41057607 43.14816529 45 49 C42.93764502 54.2595092 39.73123293 57.75360946 35.85005188 61.71258545 C35.22390383 62.36246374 34.59775579 63.01234204 33.95263356 63.68191361 C31.85626766 65.85333846 29.74929102 68.014135 27.6418457 70.17480469 C26.13267677 71.73226369 24.62393931 73.29014089 23.11560059 74.84840393 C9.24532138 89.15507627 -4.73332714 103.35737035 -18.73478985 117.53554916 C-20.61548123 119.44031729 -22.4959566 121.34529837 -24.3762207 123.25048828 C-24.84342228 123.72386266 -25.31062385 124.19723704 -25.79198305 124.6849561 C-33.74703483 132.74860794 -41.63218641 140.87797568 -49.50067014 149.02618289 C-56.71043771 156.48320202 -63.9795702 163.87923167 -71.29145747 171.23612332 C-75.63414355 175.6088461 -79.94903452 180.00171732 -84.20010948 184.46370697 C-107.51788343 208.88617745 -129.02352107 222.74757493 -161.51827431 232.31946564 C-165.27610365 233.43737051 -168.94901032 234.68409034 -172.6200161 236.06060028 C-173.52307383 236.39682459 -174.42613157 236.73304889 -175.35655469 237.07946181 C-177.05484669 237.7202248 -178.74744114 238.37639424 -180.43257505 239.05100274 C-185.60107426 240.98507232 -188.72437905 241.31834804 -194 239 C-196.0625 236.375 -196.0625 236.375 -197 233 C-195.71818121 226.47277852 -193.40054952 220.38112547 -191.04296875 214.17578125 C-190.6581282 213.15252243 -190.27328766 212.12926361 -189.87678528 211.07499695 C-188.65114425 207.81926061 -187.41937687 204.56588127 -186.1875 201.3125 C-184.9708676 198.08384696 -183.75540046 194.8547576 -182.5402832 191.62553406 C-181.75448685 189.54483542 -180.96448872 187.46571847 -180.17016602 185.38825989 C-177.80566426 179.20580568 -177.80566426 179.20580568 -175.65820312 172.94604492 C-172.85297434 164.5923831 -168.57428183 159.61271867 -162.125 153.6875 C-160.3753996 152.02705944 -158.62796654 150.36433189 -156.8828125 148.69921875 C-155.72869873 147.62933716 -155.72869873 147.62933716 -154.55126953 146.5378418 C-152.62691101 144.62361148 -150.90773272 142.73615522 -149.1627655 140.67169189 C-143.69167118 134.39667805 -137.73323912 128.59372455 -131.84448242 122.71508789 C-130.51645591 121.38570449 -129.18864183 120.05610885 -127.86102295 118.72631836 C-124.27490416 115.13566219 -120.6856556 111.54815027 -117.09567809 107.96135259 C-113.33550318 104.20371724 -109.57777748 100.44363389 -105.81965637 96.6839447 C-99.51608921 90.37856185 -93.21042417 84.07528276 -86.90356445 77.77319336 C-79.60625749 70.48134203 -72.31257907 63.18587611 -65.02074736 55.88854986 C-58.75664763 49.61991876 -52.49060962 43.35323013 -46.22293359 37.08817476 C-42.48056903 33.34737102 -38.73888779 29.60589051 -34.99895287 25.86265755 C-31.48900622 22.34983139 -27.97663988 18.83944303 -24.46235657 15.33095551 C-23.17065875 14.04058424 -21.8798191 12.74935328 -20.5898838 11.45722008 C-18.83505881 9.69967987 -17.07721093 7.9452213 -15.31852722 6.19154358 C-14.80384972 5.67463536 -14.28917222 5.15772714 -13.75889844 4.62515503 C-9.50450073 0.39436626 -6.10022127 -1.30692982 0 0 Z M-7.3828125 23.1875 C-8.74019531 24.5796875 -8.74019531 24.5796875 -10.125 26 C-11.03507813 26.928125 -11.94515625 27.85625 -12.8828125 28.8125 C-13.58148438 29.534375 -14.28015625 30.25625 -15 31 C-13.39626852 35.00517396 -10.57886014 37.6771098 -7.5546875 40.640625 C-7.02481232 41.16767029 -6.49493713 41.69471558 -5.94900513 42.23773193 C-4.26232175 43.91325675 -2.56880436 45.58167722 -0.875 47.25 C0.27259388 48.38755851 1.41973461 49.52557436 2.56640625 50.6640625 C5.37238137 53.44803465 8.18450464 56.2256576 11 59 C14.41059403 57.39464713 16.61792484 55.59481099 19.25 52.875 C20.30960938 51.78832031 20.30960938 51.78832031 21.390625 50.6796875 C21.92171875 50.12539063 22.4528125 49.57109375 23 49 C21.39577001 45.02009412 18.61753303 42.32807684 15.625 39.359375 C15.09986816 38.83232971 14.57473633 38.30528442 14.03369141 37.76226807 C12.92661117 36.65383072 11.8170167 35.54789954 10.70507812 34.44433594 C8.99893025 32.74893699 7.30375953 31.0430839 5.609375 29.3359375 C4.53189108 28.25977442 3.45378733 27.18423149 2.375 26.109375 C1.86662598 25.59695251 1.35825195 25.08453003 0.83447266 24.55657959 C-3.03319933 20.41109981 -3.03319933 20.41109981 -7.3828125 23.1875 Z M-31.15141487 46.90531921 C-32.04924124 47.80498917 -32.9470676 48.70465912 -33.87210083 49.6315918 C-34.37200307 50.12978518 -34.87190531 50.62797857 -35.3869561 51.14126873 C-37.07152463 52.82252626 -38.74881625 54.51086414 -40.42626953 56.19921875 C-41.62809029 57.40160327 -42.83035086 58.60354831 -44.03302002 59.80508423 C-47.30588659 63.07737494 -50.57253286 66.35581324 -53.83813715 69.63534927 C-57.24854632 73.05822697 -60.66458738 76.47547429 -64.08004761 79.89331055 C-70.5509481 86.37043724 -77.01673179 92.85264713 -83.48071468 99.3366766 C-90.83823645 106.71652195 -98.20141084 114.09071627 -105.56507707 121.46442986 C-120.7163714 136.63665201 -135.86051546 151.81599413 -151 167 C-149.14276623 171.03070124 -146.47282533 173.78284024 -143.3359375 176.859375 C-142.50783066 177.683237 -142.50783066 177.683237 -141.66299438 178.52374268 C-139.90498185 180.27059293 -138.1401311 182.01034601 -136.375 183.75 C-135.1792292 184.93573591 -133.98391135 186.1219288 -132.7890625 187.30859375 C-129.86459747 190.21105085 -126.93398126 193.1071641 -124 196 C-119.31776311 192.14636541 -115.10345296 188.10749985 -111.04248047 183.61108398 C-104.86690776 176.89533318 -98.49503915 170.38702369 -92.04736328 163.93383789 C-91.54906376 163.4350506 -91.05076423 162.93626331 -90.53736472 162.42236125 C-87.35575248 159.23940194 -84.17019694 156.06040913 -80.98371744 152.8823235 C-78.16055963 150.06550935 -75.34032212 147.24577408 -72.51974487 144.42637634 C-67.20274786 139.11246071 -61.88321213 133.80109434 -56.56270874 128.49068969 C-50.49518907 122.43443159 -44.43058236 116.37525996 -38.3661921 110.3158685 C-25.91398302 97.87405133 -13.45820692 85.43581138 -1 73 C-2.81392266 69.08680828 -5.34035462 66.36985383 -8.375 63.359375 C-8.90013184 62.83232971 -9.42526367 62.30528442 -9.96630859 61.76226807 C-11.07338883 60.65383072 -12.1829833 59.54789954 -13.29492188 58.44433594 C-15.00106975 56.74893699 -16.69624047 55.0430839 -18.390625 53.3359375 C-19.46810892 52.25977442 -20.54621267 51.18423149 -21.625 50.109375 C-22.13337402 49.59695251 -22.64174805 49.08453003 -23.16552734 48.55657959 C-26.88129476 44.51318411 -26.88129476 44.51318411 -31.15141487 46.90531921 Z M-161 184 C-162.7132732 188.37659283 -164.42215493 192.75486459 -166.12695312 197.13476562 C-166.7077731 198.62514709 -167.28979968 200.11505891 -167.87304688 201.60449219 C-168.71019528 203.74292231 -169.54301894 205.88299257 -170.375 208.0234375 C-170.63748535 208.69120209 -170.8999707 209.35896667 -171.17041016 210.04696655 C-172.54380242 213.42411908 -172.54380242 213.42411908 -173 217 C-165.67326548 214.9033432 -158.5227421 212.45115246 -151.375 209.8125 C-150.37082031 209.44447266 -149.36664063 209.07644531 -148.33203125 208.69726562 C-145.88705325 207.80077369 -143.44307919 206.90165072 -141 206 C-140.68088875 202.9336018 -140.68088875 202.9336018 -142.72827148 200.9152832 C-143.91271851 199.74485474 -143.91271851 199.74485474 -145.12109375 198.55078125 C-145.97380859 197.70322266 -146.82652344 196.85566406 -147.70507812 195.98242188 C-148.60677734 195.10134766 -149.50847656 194.22027344 -150.4375 193.3125 C-151.33533203 192.41982422 -152.23316406 191.52714844 -153.15820312 190.60742188 C-156.63373876 186.41735911 -156.63373876 186.41735911 -161 184 Z " fill="#000000" transform="translate(460,224)"/>
<path d="M0 0 C0.66 -0.0103125 1.32 -0.020625 2 -0.03125 C4.98216568 0.76088776 6.09683339 2.0841833 8 4.5 C8.50222206 7.77817822 8.50222206 7.77817822 8.50552368 11.75395203 C8.51465886 12.85211257 8.51465886 12.85211257 8.52397859 13.97245818 C8.53960066 16.42686693 8.52678183 18.88030287 8.51416016 21.3347168 C8.51962009 23.09408686 8.52686099 24.85345216 8.53575134 26.61280823 C8.55110277 30.40298731 8.55388441 34.19289564 8.54698563 37.98309898 C8.53620699 43.98028021 8.55357351 49.97717829 8.57479858 55.97431946 C8.60508098 65.46558161 8.6167549 74.95676009 8.62037504 84.44806653 C8.62701424 101.42873863 8.65610248 118.40935207 8.7054714 135.38995296 C8.72193888 141.34688124 8.7273918 147.30368785 8.72388101 153.26063669 C8.72344262 156.974759 8.7310288 160.68883578 8.74055672 164.40294456 C8.74322985 166.11976436 8.74250427 167.83659349 8.73804665 169.55340958 C8.31338161 185.48839339 8.31338161 185.48839339 15 199.5 C22.98746819 207.42145606 31.71607424 207.65069406 42.37971497 207.63371277 C43.42388083 207.63597833 44.46804669 207.63824388 45.54385394 207.64057809 C49.0420239 207.64690724 52.54015502 207.64608942 56.03833008 207.64526367 C58.54674835 207.64825584 61.05516617 207.6516585 63.56358337 207.65544128 C69.66988399 207.66336156 75.77617038 207.66649569 81.88247565 207.66705366 C86.84745533 207.66752929 91.81243183 207.66958636 96.77741051 207.67275429 C110.86277953 207.68155825 124.94814095 207.68617407 139.03351275 207.68542381 C140.17188365 207.68536388 140.17188365 207.68536388 141.33325195 207.68530273 C142.47301732 207.68524141 142.47301732 207.68524141 143.63580825 207.68517885 C155.94809276 207.68477247 168.26034668 207.69434085 180.57262234 207.7084411 C193.22334675 207.72281431 205.87405625 207.72971076 218.52478904 207.72884732 C225.62376077 207.72851568 232.72270044 207.73124852 239.82166481 207.74202538 C246.49880764 207.75209713 253.17587156 207.75178537 259.85302162 207.74450874 C262.30194701 207.74346293 264.75087662 207.74582558 267.19979477 207.7518692 C270.54638744 207.75959244 273.89274642 207.75494192 277.23933411 207.74723816 C278.20510858 207.75238172 279.17088305 207.75752529 280.16592342 207.76282471 C289.3329632 207.71629181 297.64681355 206.89779634 304.40625 200.08203125 C310.70210022 192.96259597 311.14824095 185.3352279 311.1418457 176.17138672 C311.14532013 175.3576358 311.14879456 174.54388489 311.15237427 173.70547485 C311.15969741 171.9474645 311.16506102 170.1894451 311.16866493 168.43142319 C311.17586072 165.64895968 311.19154753 162.86666942 311.21000671 160.08425903 C311.26235132 152.17647572 311.31049946 144.26879299 311.32592773 136.36083984 C311.33599634 131.51674181 311.36528187 126.67308878 311.40724754 121.82916641 C311.41956799 119.98480719 311.4246769 118.1403852 311.42244911 116.29598618 C311.42010178 113.72011278 311.44221442 111.14552418 311.4699707 108.56982422 C311.46336929 107.80816956 311.45676788 107.04651489 311.44996643 106.26177979 C311.51224167 102.74725318 311.73029084 100.84929267 313.90812683 98.02883911 C316.17681227 96.37077729 317.22388882 95.95662326 320 96 C320.99 95.98453125 320.99 95.98453125 322 95.96875 C325.04600765 96.77784578 326.09239843 97.98182859 328 100.5 C328.39462748 103.55925207 328.54713468 106.25782316 328.51757812 109.31665039 C328.52809204 110.65164581 328.52809204 110.65164581 328.53881836 112.01361084 C328.55643364 114.9586095 328.54475603 117.9026476 328.53125 120.84765625 C328.53394557 122.90067224 328.53782853 124.95368698 328.54284668 127.00669861 C328.54874791 131.31505456 328.54016472 135.62307906 328.52148438 139.93139648 C328.49879507 145.43010943 328.51175031 150.92803707 328.53577423 156.42672062 C328.55030124 160.67093198 328.54559297 164.91496059 328.53526306 169.15917778 C328.53260957 171.18478935 328.5358166 173.21041794 328.54518127 175.2360096 C328.5990784 190.18310701 327.8320721 202.15313635 317 213.5 C307.82820763 222.2556808 297.81814886 225.11631408 285.34912109 225.00793457 C283.6683249 225.01729451 283.6683249 225.01729451 281.95357323 225.02684355 C278.22664253 225.04270379 274.50037219 225.03019601 270.7734375 225.01757812 C268.09017042 225.02300234 265.40694771 225.02998284 262.72369385 225.03881836 C256.2089408 225.05654658 249.69437274 225.05278918 243.17961264 225.0411678 C237.88199446 225.0321112 232.5844279 225.03091907 227.2868042 225.03526306 C226.53102156 225.03587599 225.77523892 225.03648893 224.99655378 225.03712043 C223.46089568 225.03839941 221.9252376 225.03969627 220.38957953 225.0410108 C206.01083389 225.0523999 191.63219047 225.03932917 177.2534616 225.01780933 C164.93259511 224.99993985 152.6118794 225.00304443 140.29101562 225.02148438 C125.96152835 225.04292067 111.63213054 225.05130142 97.30262947 225.03903532 C95.77281826 225.03776121 94.24300704 225.03650372 92.7131958 225.03526306 C91.96062229 225.03464596 91.20804877 225.03402886 90.43267 225.03339306 C85.14525657 225.02994842 79.85790019 225.03574932 74.57049561 225.04518127 C68.1213739 225.05643337 61.67244678 225.05329414 55.22334719 225.0320583 C51.93679866 225.02159067 48.65063847 225.01952797 45.36408234 225.03065491 C41.79269443 225.04162916 38.2222097 225.02782244 34.65087891 225.00793457 C33.62430365 225.01685746 32.59772839 225.02578034 31.54004478 225.03497362 C20.31214612 224.91417955 11.13626273 221.26713172 3 213.5 C-7.91972524 202.06131753 -8.59140072 189.9451198 -8.51757812 174.96508789 C-8.52300643 173.10790459 -8.53013305 171.25072561 -8.53881836 169.39355469 C-8.55696144 164.37952595 -8.55002398 159.36582857 -8.53730202 154.35179448 C-8.52713806 149.09661707 -8.53657612 143.84146704 -8.54284668 138.58628845 C-8.55010872 129.77093431 -8.54056862 120.95571457 -8.52148438 112.14038086 C-8.49967114 101.94669377 -8.50680508 91.75332616 -8.52879 81.55964667 C-8.5469288 72.79847287 -8.54951118 64.03739532 -8.53903532 55.27620882 C-8.53279811 50.04699646 -8.53197202 44.81793448 -8.54518127 39.58873177 C-8.55671866 34.67936049 -8.54875281 29.77040285 -8.52560425 24.86107635 C-8.52030788 23.05830256 -8.52184675 21.25549405 -8.53065491 19.45273399 C-8.54155647 16.99540612 -8.52791391 14.53941108 -8.50793457 12.08216858 C-8.5213189 11.00781676 -8.5213189 11.00781676 -8.53497362 9.91176087 C-8.48106759 6.50333007 -8.21957023 4.78105538 -6.09325409 2.05931759 C-3.82183312 0.36727901 -2.79586905 -0.04368545 0 0 Z " fill="#000000" transform="translate(104,279.5)"/>
<path d="M0 0 C0.96802551 -0.00700928 1.93605103 -0.01401855 2.93341064 -0.02124023 C6.13810826 -0.03886266 9.341924 -0.02717563 12.54663086 -0.01367188 C14.77900868 -0.01636709 17.01138535 -0.02024976 19.24375916 -0.02526855 C23.92873278 -0.03117065 28.61340163 -0.02258319 33.29833984 -0.00390625 C39.28130395 0.01879104 45.26354665 0.00582299 51.2464838 -0.01819611 C55.86127563 -0.03271371 60.47589918 -0.0280192 65.09069633 -0.01768494 C67.29493738 -0.0150293 69.49919404 -0.01824616 71.70341682 -0.02760315 C87.178881 -0.07884351 99.6781496 0.28077921 111.44897461 11.51757812 C121.23764943 21.77145729 123.05335397 32.59604453 122.96655273 46.38061523 C122.97198482 47.84371636 122.97911354 49.306812 122.98779297 50.76989746 C123.00588914 54.70961048 122.99901926 58.64890039 122.98627663 62.58861995 C122.97609075 66.72271085 122.98555647 70.85676754 122.99182129 74.99085999 C122.99907582 81.92309021 122.98956192 88.85514932 122.97045898 95.78735352 C122.94863416 103.79980724 122.95579084 111.81185468 122.97776461 119.8242988 C122.99590968 126.71713042 122.99848315 133.60983974 122.98800993 140.50268751 C122.98177777 144.61408728 122.98093286 148.72529583 122.99415588 152.83668327 C123.00570301 156.69550288 122.99771025 160.55379675 122.97457886 164.41255951 C122.96928816 165.82831766 122.97081179 167.24412004 122.97962952 168.65986061 C122.99055086 170.59121246 122.97442993 172.52266098 122.95690918 174.45396423 C122.95540108 175.53476729 122.95389297 176.61557035 122.95233917 177.72912502 C122.32803487 181.18753945 121.17092652 182.36651244 118.44897461 184.51757812 C116.44897461 185.04882812 116.44897461 185.04882812 114.44897461 185.01757812 C113.45897461 185.03304687 113.45897461 185.03304687 112.44897461 185.04882812 C109.52257165 184.27150234 108.3542548 182.84123353 106.44897461 180.51757812 C105.94675255 177.86409473 105.94675255 177.86409473 105.94345093 174.78218079 C105.93242844 173.611707 105.92140594 172.44123322 105.91004944 171.23529053 C105.91822189 169.95470764 105.92639435 168.67412476 105.93481445 167.35473633 C105.92935286 165.98944813 105.92211098 164.62416607 105.91322327 163.25889587 C105.89788422 160.31992996 105.89508496 157.38131316 105.90198898 154.44231606 C105.91278121 149.78930164 105.89538463 145.13665124 105.87417603 140.48368835 C105.84390468 133.11738045 105.83222098 125.75118033 105.82859957 118.38481539 C105.82196056 105.2119234 105.79280477 92.03910736 105.74350321 78.86630696 C105.7270647 74.24743122 105.72157716 69.62871222 105.7250936 65.00981009 C105.72553296 62.1260401 105.71793137 59.24232843 105.70841789 56.35857582 C105.7044877 54.39822199 105.71047925 52.43785599 105.71684265 50.47750854 C105.67217454 40.64764025 105.43470221 31.45383691 98.03100586 24.11132812 C90.71071526 17.63785777 82.70184816 17.36981533 73.38598633 17.37573242 C72.49420685 17.372258 71.60242737 17.36878357 70.68362427 17.36520386 C68.75536593 17.35787582 66.82709931 17.35251479 64.89883041 17.34891319 C61.84753382 17.34172353 58.79639577 17.32604098 55.74514771 17.30757141 C47.07271405 17.25519941 38.40037186 17.20707804 29.7277832 17.19165039 C24.41686566 17.18158472 19.10635431 17.15230552 13.79559708 17.11033058 C11.77260531 17.09800503 9.74955626 17.09290215 7.72652817 17.09512901 C4.90163273 17.09747489 2.07791092 17.07537345 -0.74682617 17.04760742 C-1.58328674 17.05420883 -2.41974731 17.06081024 -3.28155518 17.06761169 C-6.95185091 17.00825485 -9.09825754 16.86081139 -12.06808472 14.60945129 C-13.67409943 12.3439668 -14.09394448 11.26439997 -14.05102539 8.51757812 C-14.06649414 7.52757812 -14.06649414 7.52757812 -14.08227539 6.51757812 C-12.18353458 -0.63062258 -6.09403264 -0.05405891 0 0 Z " fill="#000000" transform="translate(309.551025390625,39.482421875)"/>
<path d="M0 0 C0.78463749 -0.00623996 1.56927498 -0.01247993 2.37768936 -0.01890898 C5.00958463 -0.03487699 7.64055863 -0.02222024 10.27246094 -0.00964355 C12.15816794 -0.01506299 14.04387071 -0.02218465 15.92956543 -0.03088379 C21.05350598 -0.04914126 26.17712489 -0.04203958 31.30107117 -0.02936745 C36.65905637 -0.01925235 42.01701373 -0.02862898 47.375 -0.03491211 C56.37342278 -0.04219286 65.37171432 -0.03258957 74.37011719 -0.0135498 C84.77894229 0.00821971 95.18745401 0.00116865 105.59627151 -0.02085543 C114.52715363 -0.03899722 123.45794132 -0.04157371 132.38883591 -0.03110075 C137.72546273 -0.02485912 143.06194217 -0.02404861 148.39855957 -0.0372467 C153.41535641 -0.0487868 158.43174855 -0.04081311 163.44850159 -0.01766968 C165.29158353 -0.01237274 167.13469943 -0.01391314 168.97776794 -0.02272034 C171.49019841 -0.03362079 174.00132493 -0.01997986 176.51367188 0 C177.2463541 -0.00892289 177.97903633 -0.01784577 178.73392105 -0.02703905 C182.17718569 0.02622531 183.95321608 0.27171007 186.70758057 2.41468048 C188.38823506 4.6854726 188.80042089 5.71849778 188.75683594 8.50793457 C188.77230469 9.49793457 188.77230469 9.49793457 188.78808594 10.50793457 C187.9908182 13.50941311 186.70385563 14.60408676 184.25683594 16.50793457 C181.54027463 16.90092201 179.22859868 17.04893257 176.51367188 17.01586914 C175.33671564 17.02522908 175.33671564 17.02522908 174.13598251 17.03477812 C171.50408724 17.05074613 168.87311325 17.03808938 166.24121094 17.0255127 C164.35550394 17.03093213 162.46980117 17.03805379 160.58410645 17.04675293 C155.46016589 17.0650104 150.33654699 17.05790872 145.21260071 17.04523659 C139.8546155 17.03512149 134.49665814 17.04449812 129.13867188 17.05078125 C120.14024909 17.058062 111.14195755 17.04845871 102.14355469 17.02941895 C91.73472959 17.00764943 81.32621787 17.01470049 70.91740036 17.03672457 C61.98651824 17.05486636 53.05573056 17.05744285 44.12483597 17.04696989 C38.78820915 17.04072826 33.4517297 17.03991775 28.1151123 17.05311584 C23.09831546 17.06465594 18.08192333 17.05668225 13.06517029 17.03353882 C11.22208834 17.02824188 9.37897244 17.02978228 7.53590393 17.03858948 C5.02347346 17.04948993 2.51234694 17.03584901 0 17.01586914 C-0.73268223 17.02479203 -1.46536446 17.03371491 -2.22024918 17.04290819 C-5.66351381 16.98964383 -7.4395442 16.74415907 -10.19390869 14.60118866 C-11.87456318 12.33039654 -12.28674901 11.29737136 -12.24316406 8.50793457 C-12.25863281 7.51793457 -12.25863281 7.51793457 -12.27441406 6.50793457 C-10.60620222 0.22760762 -5.61306131 -0.06835803 0 0 Z " fill="#000000" transform="translate(203.7431640625,263.4920654296875)"/>
<path d="M0 0 C1.02994835 -0.00935994 1.02994835 -0.00935994 2.08070374 -0.01890898 C4.38097496 -0.03486111 6.68018972 -0.02222711 8.98046875 -0.00964355 C10.62972634 -0.01506373 12.27897909 -0.0221858 13.92822266 -0.03088379 C18.40757091 -0.04913268 22.886551 -0.04204323 27.36590576 -0.02936745 C32.05123901 -0.01924786 36.73654052 -0.02863023 41.421875 -0.03491211 C49.29042222 -0.04219156 57.15881932 -0.03259303 65.02734375 -0.0135498 C74.12742646 0.00821953 83.22715071 0.00116837 92.32722473 -0.02085543 C100.13710094 -0.03900097 107.94686917 -0.0415719 115.75675964 -0.03110075 C120.42269772 -0.02486116 125.08846725 -0.02404295 129.75439453 -0.0372467 C134.14085692 -0.04879232 138.52685669 -0.0408033 142.91326904 -0.01766968 C144.52414176 -0.01237565 146.13505333 -0.01390823 147.74591064 -0.02272034 C149.94311376 -0.03363283 152.13882949 -0.01996683 154.3359375 0 C156.18094849 0.00226215 156.18094849 0.00226215 158.06323242 0.00457001 C161.74951554 0.60221956 162.92356627 1.58295559 165.16796875 4.50793457 C165.69921875 6.50793457 165.69921875 6.50793457 165.66796875 8.50793457 C165.6834375 9.49793457 165.6834375 9.49793457 165.69921875 10.50793457 C164.91138424 13.47389977 163.55732468 14.60472758 161.16796875 16.50793457 C158.06323242 17.01129913 158.06323242 17.01129913 154.3359375 17.01586914 C153.64930527 17.0221091 152.96267303 17.02834907 152.25523376 17.03477812 C149.95496254 17.05073025 147.65574778 17.03809625 145.35546875 17.0255127 C143.70621116 17.03093287 142.05695841 17.03805494 140.40771484 17.04675293 C135.92836659 17.06500182 131.4493865 17.05791237 126.97003174 17.04523659 C122.28469849 17.035117 117.59939698 17.04449937 112.9140625 17.05078125 C105.04551528 17.0580607 97.17711818 17.04846217 89.30859375 17.02941895 C80.20851104 17.00764961 71.10878679 17.01470078 62.00871277 17.03672457 C54.19883656 17.05487011 46.38906833 17.05744104 38.57917786 17.04696989 C33.91323978 17.0407303 29.24747025 17.03991209 24.58154297 17.05311584 C20.19508058 17.06466146 15.80908081 17.05667244 11.42266846 17.03353882 C9.81179574 17.02824479 8.20088417 17.02977737 6.59002686 17.03858948 C4.39282374 17.04950197 2.19710801 17.03583597 0 17.01586914 C-1.84501099 17.01360699 -1.84501099 17.01360699 -3.72729492 17.01129913 C-7.41357804 16.41364958 -8.58762877 15.43291355 -10.83203125 12.50793457 C-11.36328125 10.50793457 -11.36328125 10.50793457 -11.33203125 8.50793457 C-11.3475 7.51793457 -11.3475 7.51793457 -11.36328125 6.50793457 C-9.79278824 0.59549028 -5.4395476 0.00666939 0 0 Z " fill="#000000" transform="translate(146.83203125,327.4920654296875)"/>
<path d="M0 0 C1.02994835 -0.00935994 1.02994835 -0.00935994 2.08070374 -0.01890898 C4.38097496 -0.03486111 6.68018972 -0.02222711 8.98046875 -0.00964355 C10.62972634 -0.01506373 12.27897909 -0.0221858 13.92822266 -0.03088379 C18.40757091 -0.04913268 22.886551 -0.04204323 27.36590576 -0.02936745 C32.05123901 -0.01924786 36.73654052 -0.02863023 41.421875 -0.03491211 C49.29042222 -0.04219156 57.15881932 -0.03259303 65.02734375 -0.0135498 C74.12742646 0.00821953 83.22715071 0.00116837 92.32722473 -0.02085543 C100.13710094 -0.03900097 107.94686917 -0.0415719 115.75675964 -0.03110075 C120.42269772 -0.02486116 125.08846725 -0.02404295 129.75439453 -0.0372467 C134.14085692 -0.04879232 138.52685669 -0.0408033 142.91326904 -0.01766968 C144.52414176 -0.01237565 146.13505333 -0.01390823 147.74591064 -0.02272034 C149.94311376 -0.03363283 152.13882949 -0.01996683 154.3359375 0 C156.18094849 0.00226215 156.18094849 0.00226215 158.06323242 0.00457001 C161.74951554 0.60221956 162.92356627 1.58295559 165.16796875 4.50793457 C165.69921875 6.50793457 165.69921875 6.50793457 165.66796875 8.50793457 C165.6834375 9.49793457 165.6834375 9.49793457 165.69921875 10.50793457 C164.91138424 13.47389977 163.55732468 14.60472758 161.16796875 16.50793457 C158.06323242 17.01129913 158.06323242 17.01129913 154.3359375 17.01586914 C153.64930527 17.0221091 152.96267303 17.02834907 152.25523376 17.03477812 C149.95496254 17.05073025 147.65574778 17.03809625 145.35546875 17.0255127 C143.70621116 17.03093287 142.05695841 17.03805494 140.40771484 17.04675293 C135.92836659 17.06500182 131.4493865 17.05791237 126.97003174 17.04523659 C122.28469849 17.035117 117.59939698 17.04449937 112.9140625 17.05078125 C105.04551528 17.0580607 97.17711818 17.04846217 89.30859375 17.02941895 C80.20851104 17.00764961 71.10878679 17.01470078 62.00871277 17.03672457 C54.19883656 17.05487011 46.38906833 17.05744104 38.57917786 17.04696989 C33.91323978 17.0407303 29.24747025 17.03991209 24.58154297 17.05311584 C20.19508058 17.06466146 15.80908081 17.05667244 11.42266846 17.03353882 C9.81179574 17.02824479 8.20088417 17.02977737 6.59002686 17.03858948 C4.39282374 17.04950197 2.19710801 17.03583597 0 17.01586914 C-1.84501099 17.01360699 -1.84501099 17.01360699 -3.72729492 17.01129913 C-7.41357804 16.41364958 -8.58762877 15.43291355 -10.83203125 12.50793457 C-11.36328125 10.50793457 -11.36328125 10.50793457 -11.33203125 8.50793457 C-11.3475 7.51793457 -11.3475 7.51793457 -11.36328125 6.50793457 C-9.79278824 0.59549028 -5.4395476 0.00666939 0 0 Z " fill="#000000" transform="translate(226.83203125,199.4920654296875)"/>
<path d="M0 0 C8.16034205 5.06457169 13.97368797 11.02618532 16.91796875 20.2421875 C18.6962446 29.40839121 18.25010319 39.38322739 13.34765625 47.45703125 C7.8597538 55.3348267 1.36307991 59.45189003 -7.65234375 62.45703125 C-19.57045752 63.25361469 -28.26596443 62.19395222 -37.57421875 54.48046875 C-44.70688409 47.53550513 -47.65465012 40.08341255 -48.02734375 30.20703125 C-47.82114292 20.21774647 -44.86685599 12.6485375 -37.9453125 5.40234375 C-27.69136983 -3.29691256 -12.29155491 -5.80719539 0 0 Z M-27.97265625 19.96484375 C-30.99446084 24.50811638 -31.61691221 29.11780382 -30.65234375 34.45703125 C-27.95054912 39.76055405 -24.3573748 43.55535423 -18.65234375 45.45703125 C-12.73014811 46.03763867 -8.41314565 44.9475975 -3.65234375 41.45703125 C-0.50376856 38.05268945 0.59766556 34.54279792 0.84765625 29.95703125 C0.60454823 25.35366318 -0.60345124 21.93890257 -3.65234375 18.45703125 C-7.78556121 14.83778902 -12.01234145 13.79120489 -17.4453125 14.078125 C-21.8564921 14.83544256 -25.02389157 16.59731959 -27.97265625 19.96484375 Z " fill="#000000" transform="translate(179.65234375,93.54296875)"/>
<path d="M0 0 C1.07672974 -0.0112793 2.15345947 -0.02255859 3.26281738 -0.03417969 C5.02716125 -0.0220343 5.02716125 -0.0220343 6.82714844 -0.00964355 C8.69107239 -0.02015747 8.69107239 -0.02015747 10.59265137 -0.03088379 C13.9978753 -0.04547416 17.40212726 -0.04205291 20.80729675 -0.02936745 C24.37154442 -0.01923659 27.9357507 -0.02863335 31.5 -0.03491211 C37.48542738 -0.04218831 43.47065729 -0.0326017 49.45605469 -0.0135498 C56.37491301 0.00821911 63.29329986 0.0011677 70.21214676 -0.02085543 C76.15368306 -0.03901038 82.09507746 -0.04156736 88.03663254 -0.03110075 C91.58476235 -0.02486625 95.13267058 -0.02402872 98.68078613 -0.0372467 C102.63600985 -0.05095221 106.59070592 -0.03195378 110.54589844 -0.00964355 C111.72212769 -0.01774048 112.89835693 -0.0258374 114.11022949 -0.03417969 C115.7253241 -0.01726074 115.7253241 -0.01726074 117.37304688 0 C118.30808044 0.0015081 119.24311401 0.0030162 120.20648193 0.00457001 C123.43531902 0.65991475 124.637185 1.9861788 126.68652344 4.50793457 C127.21777344 6.50793457 127.21777344 6.50793457 127.18652344 8.50793457 C127.20199219 9.49793457 127.20199219 9.49793457 127.21777344 10.50793457 C126.44425138 13.4200176 124.98577122 14.60089121 122.68652344 16.50793457 C120.20648193 17.01129913 120.20648193 17.01129913 117.37304688 17.01586914 C116.29631714 17.02714844 115.2195874 17.03842773 114.11022949 17.05004883 C112.34588562 17.03790344 112.34588562 17.03790344 110.54589844 17.0255127 C108.68197449 17.03602661 108.68197449 17.03602661 106.78039551 17.04675293 C103.37517158 17.0613433 99.97091962 17.05792205 96.56575012 17.04523659 C93.00150246 17.03510573 89.43729618 17.04450249 85.87304688 17.05078125 C79.8876195 17.05805745 73.90238958 17.04847084 67.91699219 17.02941895 C60.99813386 17.00765003 54.07974702 17.01470144 47.16090012 17.03672457 C41.21936382 17.05487952 35.27796941 17.0574365 29.33641434 17.04696989 C25.78828453 17.04073539 22.2403763 17.03989786 18.69226074 17.05311584 C14.73703703 17.06682135 10.78234095 17.04782292 6.82714844 17.0255127 C5.65091919 17.03360962 4.47468994 17.04170654 3.26281738 17.05004883 C1.64772278 17.03312988 1.64772278 17.03312988 0 17.01586914 C-0.93503357 17.01436104 -1.87006714 17.01285294 -2.83343506 17.01129913 C-6.06227215 16.35595439 -7.26413812 15.02969034 -9.31347656 12.50793457 C-9.84472656 10.50793457 -9.84472656 10.50793457 -9.81347656 8.50793457 C-9.82894531 7.51793457 -9.82894531 7.51793457 -9.84472656 6.50793457 C-8.49154751 1.41361344 -4.87144101 0.00785708 0 0 Z " fill="#000000" transform="translate(145.3134765625,391.4920654296875)"/>
</svg>
